<mxfile host="app.diagrams.net" modified="2020-11-28T08:39:13.241Z" agent="5.0 (Windows NT 10.0; Win64; x64) AppleWebKit/537.36 (KHTML, like Gecko) Chrome/87.0.4280.67 Safari/537.36 Edg/87.0.664.47" etag="lA86w16bT-KWtX6KhvtT" version="13.10.4" type="github">
  <diagram id="ti3c_cZbBXbfptGfcrjC" name="Page-1">
    <mxGraphModel dx="768" dy="472" grid="1" gridSize="10" guides="1" tooltips="1" connect="1" arrows="1" fold="1" page="1" pageScale="1" pageWidth="850" pageHeight="1100" background="#ffffff" math="0" shadow="0">
      <root>
        <mxCell id="0" />
        <mxCell id="1" parent="0" />
      </root>
    </mxGraphModel>
  </diagram>
</mxfile>
